<svg data-v-423bf9ae="" xmlns="http://www.w3.org/2000/svg" viewBox="0 0 289.037900166703 60" class="font"><!----><!----><!----><g data-v-423bf9ae="" id="1dc256b8-bec4-4340-8814-935a4111b447" fill="white" transform="matrix(5.830903811703725,0,0,5.830903811703725,-0.5830913445232113,-12.6530621930969)"><path d="M0.10 12.29L3.82 2.69L5.52 2.69L9.24 12.29L7.83 12.29L6.86 9.73L2.41 9.73L1.47 12.29L0.10 12.29ZM2.84 8.57L6.43 8.57L5.31 5.57L4.66 3.84L4.59 3.84L3.96 5.54L2.84 8.57ZM13.08 12.46L13.08 12.46Q11.40 12.46 10.61 11.53L10.61 11.53L10.61 11.53Q9.83 10.60 9.83 8.61L9.83 8.61L9.83 8.61Q9.83 6.64 10.62 5.70L10.62 5.70L10.62 5.70Q11.41 4.76 13.08 4.76L13.08 4.76L13.08 4.76Q14.59 4.76 15.29 5.49L15.29 5.49L15.29 5.49Q15.99 6.22 15.99 7.66L15.99 7.66L14.73 7.66L14.73 7.66Q14.73 6.66 14.37 6.22L14.37 6.22L14.37 6.22Q14.01 5.78 13.08 5.78L13.08 5.78L13.08 5.78Q12.05 5.78 11.58 6.45L11.58 6.45L11.58 6.45Q11.10 7.11 11.10 8.61L11.10 8.61L11.10 8.67L11.10 8.67Q11.10 10.15 11.56 10.79L11.56 10.79L11.56 10.79Q12.03 11.44 13.08 11.44L13.08 11.44L13.08 11.44Q14 11.44 14.40 10.97L14.40 10.97L14.40 10.97Q14.80 10.50 14.80 9.56L14.80 9.56L15.99 9.56L15.99 9.56Q15.99 10.82 15.27 11.64L15.27 11.64L15.27 11.64Q14.56 12.46 13.08 12.46L13.08 12.46ZM20.08 12.46L20.08 12.46Q18.40 12.46 17.61 11.53L17.61 11.53L17.61 11.53Q16.83 10.60 16.83 8.61L16.83 8.61L16.83 8.61Q16.83 6.64 17.62 5.70L17.62 5.70L17.62 5.70Q18.41 4.76 20.08 4.76L20.08 4.76L20.08 4.76Q21.59 4.76 22.29 5.49L22.29 5.49L22.29 5.49Q22.99 6.22 22.99 7.66L22.99 7.66L21.73 7.66L21.73 7.66Q21.73 6.66 21.37 6.22L21.37 6.22L21.37 6.22Q21.01 5.78 20.08 5.78L20.08 5.78L20.08 5.78Q19.05 5.78 18.58 6.45L18.58 6.45L18.58 6.45Q18.10 7.11 18.10 8.61L18.10 8.61L18.10 8.67L18.10 8.67Q18.10 10.15 18.56 10.79L18.56 10.79L18.56 10.79Q19.03 11.44 20.08 11.44L20.08 11.44L20.08 11.44Q21 11.44 21.40 10.97L21.40 10.97L21.40 10.97Q21.80 10.50 21.80 9.56L21.80 9.56L22.99 9.56L22.99 9.56Q22.99 10.82 22.27 11.64L22.27 11.64L22.27 11.64Q21.56 12.46 20.08 12.46L20.08 12.46ZM26.53 12.46L26.53 12.46Q25.42 12.46 24.83 11.87L24.83 11.87L24.83 11.87Q24.23 11.27 24.23 9.95L24.23 9.95L24.23 4.93L25.47 4.93L25.47 9.87L25.47 9.87Q25.47 10.75 25.86 11.09L25.86 11.09L25.86 11.09Q26.25 11.44 26.99 11.44L26.99 11.44L26.99 11.44Q27.52 11.44 27.97 11.18L27.97 11.18L27.97 11.18Q28.42 10.92 28.69 10.43L28.69 10.43L28.69 10.43Q28.95 9.94 28.95 9.28L28.95 9.28L28.95 4.93L30.18 4.93L30.18 12.29L29.25 12.29L29.11 11.30L29.01 11.30L29.01 11.30Q28.20 12.46 26.53 12.46L26.53 12.46ZM32.23 12.29L32.23 2.69L39.03 2.69L39.03 3.85L33.56 3.85L33.56 6.90L38.53 6.90L38.53 8.06L33.56 8.06L33.56 12.29L32.23 12.29ZM40.61 3.54L40.61 2.17L41.85 2.17L41.85 3.54L40.61 3.54ZM40.61 12.29L40.61 4.93L41.85 4.93L41.85 12.29L40.61 12.29ZM43.72 12.29L43.72 4.93L44.66 4.93L44.80 5.92L44.90 5.92L44.90 5.92Q45.71 4.76 47.38 4.76L47.38 4.76L47.38 4.76Q48.48 4.76 49.08 5.35L49.08 5.35L49.08 5.35Q49.67 5.95 49.67 7.27L49.67 7.27L49.67 12.29L48.44 12.29L48.44 7.35L48.44 7.35Q48.44 6.47 48.05 6.13L48.05 6.13L48.05 6.13Q47.66 5.78 46.91 5.78L46.91 5.78L46.91 5.78Q46.38 5.78 45.93 6.04L45.93 6.04L45.93 6.04Q45.49 6.30 45.22 6.79L45.22 6.79L45.22 6.79Q44.95 7.28 44.95 7.94L44.95 7.94L44.95 12.29L43.72 12.29Z"></path></g><!----><!----></svg>